<svg width="440" height="336" viewBox="0 0 440 336" fill="none" xmlns="http://www.w3.org/2000/svg">
<path fill-rule="evenodd" clip-rule="evenodd" d="M245 93C221.804 93 203 74.196 203 51C203 27.804 221.804 9 245 9C268.196 9 287 27.804 287 51C287 74.196 268.196 93 245 93ZM34 223C34 248.405 54.5949 269 80 269C105.405 269 126 248.405 126 223C126 197.595 105.405 177 80 177C54.5949 177 34 197.595 34 223ZM433 227H168.07C166.429 227 164.859 227.672 163.727 228.86L106.273 289.14C105.141 290.328 103.571 291 101.93 291H25.5C15.2827 291 7 299.283 7 309.5C7 319.717 15.2827 328 25.5 328H136.015C137.606 328 139.132 327.368 140.257 326.243L163.743 302.757C164.868 301.632 166.394 301 167.985 301H433V227ZM285.804 96.3752C297.619 96.1501 308.304 103.367 312.507 114.411L352.5 219.5L270.5 220.5L254.5 189.5L240.5 161.5L217.976 179.97C216.336 181.315 214.492 182.39 212.514 183.156L153.5 206L153.063 206.15C144.404 209.127 134.949 204.66 131.75 196.08C128.757 188.052 132.249 179.055 139.875 175.149L147 171.5L192.76 153.473C195.229 152.501 197.479 151.047 199.38 149.196L241.67 108.029C248.949 100.943 258.652 96.8923 268.809 96.6989L285.804 96.3752ZM168 310H433V328H168C163.029 328 159 323.971 159 319C159 314.029 163.029 310 168 310Z" fill="#EBF0DC"/>
</svg>
