<svg width="240" height="34" viewBox="0 0 240 34" fill="none" xmlns="http://www.w3.org/2000/svg">
<g clip-path="url(#clip0_638880_25058)">
<path d="M163.095 7.51367H159.274V26.511H163.095V7.51367Z" fill="#468459"/>
<path d="M143.96 7.51367L136.622 26.5051H140.633L146.037 12.0298L151.436 26.5051H155.447L148.109 7.51367H143.96Z" fill="#468459"/>
<path d="M56.2547 7.51367L48.9161 26.5051H52.9276L58.3319 12.0298L63.7302 26.5051H67.7418L60.4091 7.51367H56.2547Z" fill="#468459"/>
<path d="M109.368 19.2376C109.349 20.2349 108.939 21.1849 108.225 21.8829C107.512 22.5809 106.552 22.9711 105.553 22.9694C104.585 23.0129 103.64 22.6713 102.925 22.0195C102.21 21.3677 101.783 20.459 101.738 19.4932C101.735 19.4635 101.735 19.4337 101.738 19.404V7.51953H97.9167V19.404C97.9723 21.3899 98.8015 23.2759 100.228 24.661C101.655 26.046 103.566 26.821 105.556 26.821C107.546 26.821 109.457 26.046 110.884 24.661C112.31 23.2759 113.14 21.3899 113.195 19.404V7.51953H109.38L109.368 19.2376Z" fill="#468459"/>
<path d="M133.587 13.4618C133.579 11.881 132.944 10.3679 131.821 9.25397C130.697 8.14009 129.177 7.51638 127.594 7.51954H118.886V26.5347H122.648V10.8353H127.124C127.8 10.8674 128.439 11.1585 128.907 11.6481C129.374 12.1377 129.635 12.7882 129.635 13.4648C129.635 14.1413 129.374 14.7918 128.907 15.2814C128.439 15.771 127.8 16.0621 127.124 16.0942H124.064L129.617 26.5288H133.712L129.647 19.0653C130.803 18.651 131.801 17.8902 132.507 16.887C133.212 15.8839 133.59 14.6875 133.587 13.4618Z" fill="#468459"/>
<path d="M87.5188 7.51367L81.9181 15.1435L76.3114 7.51367H71.6035V26.5051H75.4246V12.6953L81.9181 21.3234L88.4115 12.6953V26.5051H92.2326V7.51367H87.5188Z" fill="#468459"/>
<path d="M40.5829 15.1846H35.2263C34.72 15.1722 34.2386 14.9626 33.885 14.6007C33.5313 14.2387 33.3334 13.7531 33.3336 13.2474C33.3334 12.7497 33.5282 12.2716 33.8762 11.9152C34.2243 11.5588 34.6981 11.3524 35.1965 11.34H44.6778L46.7014 7.54883H35.2144C33.7072 7.55193 32.2623 8.14944 31.1944 9.21121C30.1264 10.273 29.5219 11.713 29.5125 13.2177C29.5266 14.7129 30.1343 16.1413 31.2022 17.1896C32.27 18.2379 33.7108 18.8205 35.2084 18.8094H40.5651C41.0797 18.8094 41.5732 19.0135 41.9371 19.3768C42.301 19.7401 42.5054 20.2328 42.5054 20.7466C42.5054 21.2603 42.301 21.7531 41.9371 22.1163C41.5732 22.4796 41.0797 22.6837 40.5651 22.6837H31.0421L29.0185 26.4808H40.5651C42.0754 26.4919 43.5286 25.9056 44.6072 24.85C45.6857 23.7944 46.3017 22.3554 46.3205 20.8476C46.3182 20.107 46.1698 19.3742 45.8837 18.6909C45.5977 18.0076 45.1797 17.3873 44.6536 16.8653C44.1274 16.3433 43.5034 15.9299 42.8172 15.6486C42.1311 15.3674 41.3961 15.2239 40.6544 15.2262L40.5829 15.1846Z" fill="#468459"/>
<path d="M16.7637 19.0653L7.69903 28.145C5.10062 27.1655 2.92707 25.3097 1.55469 22.8989C0.182309 20.4881 -0.302494 17.6741 0.184215 14.944C0.670924 12.214 2.0985 9.73977 4.21979 7.9498C6.34107 6.15982 9.02251 5.16677 11.7998 5.14258C12.3715 5.14252 12.9424 5.18423 13.508 5.26737L5.30043 13.4617C4.92252 13.8394 4.62283 14.2877 4.41846 14.781C4.21408 15.2744 4.10904 15.803 4.10931 16.3369C4.10987 17.4151 4.5394 18.4489 5.30341 19.2108C6.06741 19.9728 7.10332 20.4006 8.18323 20.4C9.26314 20.3995 10.2986 19.9706 11.0618 19.2079L14.0377 16.2368C14.4057 15.8721 14.9031 15.6674 15.4215 15.6674C15.94 15.6674 16.4374 15.8721 16.8054 16.2368C16.9907 16.4216 17.1378 16.6412 17.2381 16.8828C17.3384 17.1245 17.3901 17.3835 17.3901 17.6451C17.3901 17.9066 17.3384 18.1657 17.2381 18.4073C17.1378 18.649 16.9907 18.8685 16.8054 19.0534L16.7637 19.0653Z" fill="#468459"/>
<path d="M15.8238 5.85547L6.7829 14.959C6.41719 15.3321 6.2124 15.8334 6.2124 16.3554C6.2124 16.8775 6.41719 17.3787 6.7829 17.7518C6.9609 17.9398 7.17543 18.0895 7.41337 18.1918C7.6513 18.2941 7.90764 18.3468 8.1667 18.3468C8.42577 18.3468 8.68211 18.2941 8.92004 18.1918C9.15798 18.0895 9.37251 17.9398 9.55051 17.7518L12.5264 14.7807C13.2773 14.0292 14.2949 13.6038 15.3581 13.5971C16.4213 13.5905 17.4442 14.003 18.2045 14.7451L18.2343 14.7807C18.9924 15.5442 19.4178 16.5757 19.4178 17.6508C19.4178 18.7259 18.9924 19.7575 18.2343 20.5209L10.0624 28.7331C10.63 28.816 11.2029 28.8577 11.7765 28.8579C14.5494 28.8216 17.2226 27.82 19.3346 26.0258C21.4466 24.2316 22.865 21.7575 23.3447 19.0306C23.8245 16.3038 23.3357 13.4952 21.9626 11.0898C20.5895 8.68437 18.4182 6.83307 15.8238 5.85547Z" fill="#468459"/>
</g>
<path d="M177.308 13.7098H178.207V12.7231H177.308V13.7098ZM185.377 19.0161L184.368 17.3497L183.71 18.5776C182.862 18.2414 182.095 17.8759 181.408 17.4812V18.6434H178.207V17.6347C177.52 18.0879 176.679 18.5483 175.685 19.0161H185.377ZM187.657 15.3763C187.35 14.9523 187.029 14.4188 186.692 13.7756C186.429 14.0679 186.02 14.4773 185.464 15.0035L184.544 13.6221V15.3324H182.022C182.841 15.7125 183.776 16.0852 184.829 16.4507C186.057 16.0706 186.999 15.7125 187.657 15.3763ZM189.894 13.644C190.361 13.0301 190.712 12.2188 190.946 11.2101H188.775C189.082 12.2188 189.455 13.0301 189.894 13.644ZM189.828 17.4374C188.834 18.0221 187.518 18.5483 185.881 19.0161H193.314C191.823 18.5337 190.661 18.0075 189.828 17.4374ZM182.307 13.7098V12.7231H181.408V13.7098H182.307ZM186.407 24.6952H194.411V27.1071H174.457V24.6952H177.242V21.8447H180.728V24.6952H182.833V21.3623H175.115V19.2354L173.887 16.9331C175.217 16.4653 176.387 15.9317 177.395 15.3324H177.308H174.896V10.9909H178.207V10.5085H174.282V8.22809H178.207V7.26331H181.408V8.22809H185.333V10.5085H181.408V10.9909H184.544V11.6268C185.669 10.4573 186.605 8.94437 187.35 7.08789L190.376 7.37294C190.215 7.89919 190.062 8.33772 189.916 8.68855H194.696V11.2101H193.862C193.57 13.0228 193 14.4553 192.152 15.5078C192.839 15.8586 193.782 16.2314 194.981 16.6261L193.753 19.1696V21.3623H186.407V21.9324H192.657V24.0593H186.407V24.6952Z" fill="#96C519"/>
<path d="M213.136 21.5377C212.23 19.9736 211.419 18.2779 210.702 16.4507V21.5377H213.136ZM207.304 16.4507C206.602 18.2341 205.776 19.9297 204.826 21.5377H207.304V16.4507ZM205.659 13.666H201.647V11.2979C201.471 11.9118 201.274 12.5038 201.054 13.0739V21.2965C203.043 18.7968 204.577 16.2533 205.659 13.666ZM216.645 10.8155V13.666H212.391C213.516 16.4287 215.11 19.0746 217.171 21.6035L215.351 24.9802C214.868 24.2932 214.357 23.5257 213.816 22.6779V24.2347H210.702V27.5237H207.304V24.2347H204.124V22.6998C203.7 23.3723 203.174 24.1324 202.546 24.9802L201.054 23.3138V27.5237H197.831V18.4679C197.334 19.3012 196.823 20.0101 196.296 20.5949L195.551 16.341C196.428 15.157 197.144 13.8779 197.7 12.5038C198.27 11.1151 198.759 9.41214 199.169 7.39487L202.37 7.96497C202.224 8.95898 202.027 9.90915 201.778 10.8155H207.304V7.48258H210.702V10.8155H216.645Z" fill="#96C519"/>
<path d="M223.376 10.5304H221.644V14.85C222.346 13.4613 222.923 12.0214 223.376 10.5304ZM228.551 13.1178H234.822V11.9776H228.551V13.1178ZM235.918 21.3623L238.506 21.7351C238.476 22.4075 238.454 22.9045 238.44 23.2261C238.425 23.5477 238.389 23.9424 238.33 24.4101C238.286 24.8633 238.257 25.1776 238.243 25.353C238.228 25.5284 238.169 25.755 238.067 26.0327C237.965 26.3105 237.892 26.4859 237.848 26.559C237.804 26.6321 237.694 26.7344 237.519 26.8659C237.343 27.0121 237.197 27.0852 237.08 27.0852C236.978 27.0998 236.781 27.1291 236.488 27.1729C236.211 27.2168 235.977 27.2387 235.787 27.2387C235.597 27.2387 235.29 27.2387 234.866 27.2387C233.36 27.2387 232.425 27.1218 232.059 26.8879C231.708 26.654 231.533 26.0766 231.533 25.1556V19.8493H230.765C230.692 21.6766 230.225 23.1822 229.362 24.3663C228.514 25.5503 227.147 26.6101 225.262 27.5457L223.551 24.9144C225.013 24.2566 226.051 23.555 226.665 22.8095C227.279 22.064 227.637 21.0772 227.74 19.8493H225.898C225.898 19.8786 225.898 19.9224 225.898 19.9809C225.912 20.0394 225.92 20.0832 225.92 20.1125C225.92 21.355 225.656 22.254 225.13 22.8095C224.619 23.3649 223.807 23.6427 222.696 23.6427H222.324L221.688 20.9676H221.841C222.294 20.9676 222.594 20.8726 222.74 20.6826C222.886 20.4779 222.959 20.0613 222.959 19.4327C222.959 18.8188 222.864 18.2706 222.674 17.7882C222.484 17.3058 222.141 16.7576 221.644 16.1437V27.4799H218.574V7.96497H226.38V9.2148H229.472V7.24138H233.068V9.2148H238.067V14.6088H236.203V15.7709H227.169V14.6088H225.547V12.9424C225.094 14.0826 224.699 14.967 224.363 15.5955C224.699 16.0633 224.991 16.553 225.24 17.0646H238.133V19.8493H234.625V24.0154C234.625 24.2493 234.646 24.3882 234.69 24.4321C234.749 24.4613 234.917 24.4759 235.195 24.4759C235.516 24.4759 235.706 24.3444 235.765 24.0812C235.823 23.8181 235.874 22.9118 235.918 21.3623Z" fill="#96C519"/>
<defs>
<clipPath id="clip0_638880_25058">
<rect width="163" height="24" fill="white" transform="translate(0 5)"/>
</clipPath>
</defs>
</svg>
